<svg xmlns="http://www.w3.org/2000/svg" version="1.1" xmlns:xlink="http://www.w3.org/1999/xlink" xmlns:svgjs="http://svgjs.dev/svgjs" width="2000" height="2250" viewBox="0 0 2000 2250"><g transform="matrix(1,0,0,1,0.000012850225743932242,0)"><svg viewBox="0 0 320 360" data-background-color="#ffffff" preserveAspectRatio="xMidYMid meet" height="2250" width="2000" xmlns="http://www.w3.org/2000/svg" xmlns:xlink="http://www.w3.org/1999/xlink"><g id="tight-bounds" transform="matrix(1,0,0,1,0.0000020560361235766322,0)"><svg viewBox="0 0 320 360" height="360" width="320"><g><svg></svg></g><g><svg viewBox="0 0 320 360" height="360" width="320"><g><path transform="translate(-15.58119,4.24857) scale(3.51065,3.51065)" d="M51.5 85.2c-0.4-0.5-0.8-0.2-0.8-0.5-2.4 0.6-6.9-1-8.8-0.8 0.4-0.6-0.6-0.5-0.6-0.9-0.4 0.6-0.8 0-1.4 0.2-0.6-1.5-3-0.4-3.3-2.3-1.4 0-1.9-0.8-3.3-1.6 0.1-0.1 0.2-0.1 0.3-0.2-0.7-0.1-0.7-0.5-1.3-0.5l0.2-0.4c-1.1-0.2-1.5-1.9-3.1-2.5-0.5-0.1-1.6-1.8-2.2-2.2-0.3-0.2-0.8-0.2-0.1-0.3-0.1-0.1-0.1-0.3 0-0.4-0.7-0.2-0.8-0.8-1.7-1.1-0.1-0.3 0.2-0.5 0-0.7-0.2-0.1-0.5 0.1-0.7 0-0.1 1.8 1.9 2 2.5 3.5-0.2-0.2-0.5-0.8-0.7-0.4-0.1 0.3 0.8 1.4 0.8 0.8-0.3 0.2-0.4-0.3-0.2-0.4 0.3 0.5 0.9 0.4 0.9 0.8-0.3 0.3-0.7-0.3-0.6 0.2 0.9 0.5 0.8 1 1.3 1.7-0.4-0.5-0.5 0.4-0.9 0-0.1-1.5-1.8-1.2-1.8-2.7-0.2-0.5-0.4-0.1-0.7-0.3 0.4-0.4-1.2-1.8-1.2-1.3-0.5-0.6-0.2-0.8-0.3-1.2-0.4-0.1-0.1 0.4-0.4 0.1 0.4-0.7-0.5-1.6-1.1-2.3l0.4-0.2c-0.7-0.4-0.8-1.2-1.3-2.1-0.6 0.9 1.2 2.9 0.9 3.3 0 0.1 0.7 0.9 0.9 1.3 0.8 1.4 1.4 3.1 2.5 3.9-0.2-0.1-0.1-0.7 0.2-0.4 0 0.3-0.2 0.6-0.2 0.9 0.6 0.6 1.1 1.1 1.7 1.7-1.3-0.8-2.6-1.6-3.5-2.8 0.5-0.1 1 0.8 1.4 0.7-1-0.8-0.7-1.1-1.1-2.1-0.4-0.3 0.1 0.4-0.3 0.5-1.3-1.2-2.3-1.9-2.9-3 0.1-0.1 0.2-0.2 0.2-0.4-0.1-0.1-0.1-0.1-0.2-0.2 0.6 0.6 0.8 1.1 1.5 1.2-0.3-0.3 0-0.4-0.4-0.7-0.2-0.4-0.5 0.2-0.7-0.1 0.2-0.3 0-0.7 0-1-0.2 0-0.4 0-0.5-0.3-0.2-0.1-0.3 0-0.4 0.2-0.1-0.1-0.1-0.3-0.2-0.4v-0.1c-0.1-0.1-0.2-0.3-0.3-0.4-0.8-2.1-1.3-4.9-2.4-6.7 0.3-1.2-0.2-3.6-0.5-4.2 0.3-0.5 0.1-2.8-0.1-3.2-0.5 0.2 0.1 1.3-0.4 1.6-0.5-2.2 0.3-4.7 0.1-6.7 0.2 0 0.4 0 0.4-0.1-0.3-0.3 0.2-0.9 0.1-1.6 0.4-0.9-0.9 1.3-0.9 2.2-0.1 0.2-0.5 0-0.4 0.5 0 0.7 0.2 2.1-0.2 3.1-0.2 0-0.2-0.2-0.4-0.1-0.1 0.5-0.2 1.1-0.3 1.6-0.1-0.2-0.2-0.5-0.2-0.6-0.5-2.5 0-5.4-0.2-7.5 0.4 0 0.4-0.6 0.7-0.8-0.1 0.8-0.3 1.8 0.2 2 0.4-3.9 1.2-8.2 3-12.4 1.3-3.1 3.2-6.2 5.5-8.7 0.2 0.3-0.1 1 0 1.3 2-2.1 3.3-4.6 5.5-6 0.1 0.5-0.9 0.9-0.9 1.3 0.9-0.9 1.2-0.6 2.2-0.9 0.3-0.4-0.4 0-0.5-0.4 0.6-0.4 1-0.9 1.4-1.2 0 0.1-0.1 0.1-0.1 0.2 1.1-0.3 1.2-0.9 2-1.1-0.1-0.1-0.3-0.2-0.6-0.1 0.2-0.1 0.5-0.3 0.8-0.4-0.1 0-0.1 0.1-0.2 0.1 0.6-0.3 0.1 0.1 0.1 0.3 0.1 0 0.2-0.1 0.2-0.1-0.6 0.4-1 0.6-1.2 1.3 0.3-0.2 0.4 0 0.8-0.3 0.4-0.2-0.1-0.5 0.2-0.7 0.3 0.2 0.7 0.1 1 0.1 0-0.2 0.1-0.4 0.3-0.5 0.1-0.2 0-0.3-0.1-0.3 0.1-0.1 0.2-0.1 0.4-0.2 0 0 0.1 0 0.1 0.1 1.7-0.8 3.6-1.5 5.4-2.1 1.1-0.1 2.5-0.1 3.1-0.8-0.2 0-0.4 0.1-0.5 0 0.1 0 0.3-0.1 0.4-0.1 0.2 0.2 0.5 0 0.2 0.4 0.1 0 0.1 0 0.2-0.1 0 0.1 0 0.1 0.1 0.2 0.1 0 0.2-0.1 0.3-0.3 0.1 0 0.2 0 0.3-0.1l-0.1 0.1c0.8-0.2 1.5-0.1 2.6-0.3 0-0.1 0-0.2 0-0.3 0.2 0 0.3-0.1 0.5-0.1v0.1c0.4-0.2 0.8 0.2 0.8 0 0.1 0 0.1 0 0.2 0 0 0.2-0.1 0.3-0.1 0.4 0.5 0 0.8 0 1-0.3-0.1-0.1-0.2-0.1-0.3-0.1 0.2 0 0.4-0.1 0.6-0.2 0.3 0.1 0.4 0.2 0.4 0.6 0.5-0.9 2.1 0.2 2.8 0 0.3 0 0.2-0.4 0.4-0.6 0.1 0 0.2 0 0.3 0 0.5 0.4 1.2 0.8 2.1 0.9-0.8-0.2 0.1-0.3 0.2-0.4-0.2 0-0.2-0.1-0.2-0.2 0.3 0 0.6 0.1 0.9 0.1 0 0.2 0.1 0.3 0.3 0.3 0.2 0 0.2-0.1 0.2-0.3 0.3 0 0.5 0 0.8 0.1-0.1 0.4 0.5 0.5 0.7 0.8-0.8-0.2-1.7-0.5-2 0 3.2 0.7 6.7 1.7 10.1 3.4 0 0 0 0 0 0.1h0.1c0.6 0.3 1.2 0.6 1.8 0.9 0.4 0.2 0.7 0.4 1.1 0.7 0 0.1 0 0.2 0.2 0.2h0.1c0.4 0.3 0.8 0.5 1.2 0.8 0.4 0.6 0.8 1.4 1.5 1.2 1.5 2.3 3.1 3.2 4.4 5.6 0.1-0.4 0.4 0.9 0.9 1-0.8-0.1 0.5 0.5-0.3 0.4 0.7 0.7 0.9 1 1 1.8-0.2-0.4-0.3-0.5-0.4-0.1-0.1 0.6 0.7-0.1 1 0.5-0.6 0-0.4 0.4-0.3 0.9 0.3-0.3 0.2-0.6 0.5-0.5 0.4 0.4-0.2 0.5-0.1 0.8 0.3-0.4 0.4-0.2 0.8 0-0.5 0.1 0.3 0.8-0.3 0.5 0.4 0.5 0.5 0.8 0.3 1.3-0.4-0.6-0.1-1-0.7-0.9 1.2 1 0.6 3.3 2 3.5-0.9 0.2 0 0.6-0.5 0.7 0.6 0.2 0.3 1 1 1.2-0.1 0.5-0.3 0.8-0.4 1.3 0.3 0.4 0.4 1.2 0.9 1.3-0.3 0.3-0.1 1.1-0.4 1.4 0.4-0.2 0.6-0.2 0.9 0.2-0.5 0.4-0.1 0.8-0.4 0.9 0.9 2.3-0.2 7 0.3 8.8-0.6-0.3-0.4 0.7-0.8 0.7 0.7 0.3 0.1 0.8 0.4 1.3-1.4 0.8 0 3-1.9 3.5 0.2 1.4-0.6 2-1.2 3.5-0.1-0.1-0.1-0.2-0.2-0.3-0.1 0.7-0.5 0.8-0.3 1.4l-0.4-0.2c0 1.1-1.7 1.7-2.1 3.4-0.1 0.5-1.6 1.8-2 2.5-0.2 0.3-0.1 0.8-0.3 0.1-0.1 0.1-0.3 0.1-0.4 0.1-0.1 0.7-0.7 0.9-0.9 1.8-0.2 0.1-0.5-0.2-0.7 0.1 0 0.2 0.2 0.5 0.1 0.7 1.8-0.1 1.8-2.2 3.2-2.9-0.1 0.3-0.7 0.6-0.3 0.8 0.3 0 1.2-1 0.7-0.9 0.3 0.2-0.3 0.4-0.4 0.3 0.5-0.4 0.3-0.9 0.7-1 0.3 0.2-0.3 0.7 0.3 0.6 0.4-0.9 0.9-1 1.5-1.5-0.4 0.4 0.5 0.5 0.1 0.9-1.5 0.3-1 2-2.5 2.2-0.4 0.3-0.1 0.4-0.2 0.7-0.5-0.3-1.6 1.4-1.2 1.3-0.5 0.5-0.8 0.3-1.2 0.4-0.1 0.4 0.4 0.1 0.2 0.4-0.7-0.3-1.6 0.7-2.2 1.4l-0.3-0.3c-0.3 0.8-1.1 0.9-2 1.5 1 0.5 2.7-1.6 3.2-1.3 0.1 0 0.9-0.8 1.2-1.1 1.3-1 2.9-1.8 3.5-2.9-0.1 0.2-0.7 0.2-0.4-0.1 0.3-0.1 0.6 0.1 0.9 0.1 1.6-2.2 3.6-4 5.1-6.6 0.1-0.1 0.2-0.3 0.3-0.5-0.2 0.6-0.5 1.1-0.7 1.7-1.6 1.1-2.2 4.3-4.1 4.8 0.1 1.1-0.9 1.4-1.4 2.7-0.3 0.4-0.5-0.3-0.8 0.2 0.3 1.4-2.5 1.3-2.4 2.6-0.2 0.1-0.5 0.2-0.7 0.4h-0.1c-0.1 0.1-0.1 0.1-0.2 0.2-0.5 0.3-0.9 0.6-1.3 0.9-1.4 0.8-3.3 1.4-4.8 2.2v-0.1c-0.4 0.2-0.9 0.1-0.8 0.5-0.3 0.2-0.6 0.4-0.9 0.6-0.1 0-0.1 0-0.2 0 0 0-0.1-0.1-0.2-0.1-0.2 0-0.2 0-0.3 0.1-1.3 0.1-3 0.7-3.5 1.1-0.5-0.3-2.8 0.2-3.2 0.4 0.2 0.3 0.8 0 1.3 0-0.3 0.1-0.6 0.2-0.7 0.4-0.1 0-0.1 0-0.2 0-0.1-0.3-0.4 0-0.5-0.1h0.1c-0.1-0.4-0.4-0.6-0.9-0.5 0 0.2 0 0.3-0.1 0.5 0.2 0 0.8-0.3 0.8 0-0.1 0-0.1 0.1 0 0.1-0.2 0.2-0.5 0.2-0.7 0.3-0.4 0-0.9 0-1.3 0-0.1-0.1-0.2-0.1-0.4-0.2-0.1 0.1-0.3 0.1-0.4 0.2-0.6 0-1.3 0.1-1.8 0.2 0-0.2 0-0.4-0.2-0.4-0.3 0.4-0.9-0.1-1.6 0.1-0.7-0.2 0.4 0.3 1.4 0.5-0.1 0.1-0.2 0.2-0.5 0.3M37.5 86.6c-1.4-1.3-4.3-1.9-4.8-2.9-0.8-0.1-2-1.6-3-1.8 0.5 0 0.1-0.3 0-0.5-0.2 0.2-0.4 0.3-0.6 0.3 0-0.8-0.8-1.3-1.5-1.8 0.5 0.3 0.9 0.5 1.5 0.6 0-0.2 0-0.4 0.2-0.4 0.7 0.7 1.5 1.4 2.4 2.1 1.2 1.1 7.4 3.9 8.5 4.4 0 0-0.2 0.4-0.1 0.4 0.5 0.3 0.9-0.3 1 0.4-1.6 0.2-2.2-0.9-3.6-0.8M83.6 63.4v0.1 0c-0.1 0 0-0.1 0-0.1M43.2 17.1c-0.1 0.1-0.2 0.1-0.2 0.1 0-0.1 0.1-0.1 0.2-0.1M41.3 17.6c0 0.1 0 0.1 0 0 0 0.1 0 0.1 0 0 0 0.1 0 0 0 0M34.7 19.7v0c0.1-0.1 0.1-0.1 0.2-0.1-0.1 0-0.2 0.1-0.2 0.1M50.7 16.4c-0.2 0-0.3 0-0.4-0.1 0.1 0 0.2 0 0.3 0h0.1c0 0 0 0 0 0.1M52.5 16.6c-0.1-0.1-0.4-0.2-0.7-0.2 0-0.1 0.1-0.2 0.1-0.2 0.1 0 0.2 0 0.3 0 0 0 0.1 0 0.1 0.1 0 0 0 0 0-0.1 0.1 0 0.1 0 0.2 0 0.1 0.2 0.2 0.3 0 0.4M55.8 16.9c-0.5 0.1-0.8-0.1-1.3-0.4 0.3 0 0.7 0.1 1 0.2 0.1 0 0.2 0.1 0.3 0.2M91.4 31.1c-0.2 0.1-0.3 0.1-0.5-0.3-1.6-3.4-4.5-8.3-8.7-12.4-4.1-4.2-9.6-7.6-14.6-9.4 0.3 0.1 0.7 0.3 0.5 0.5-4.4-1.7-8.6-2.7-12.6-3.1-10.8-1.7-22.1 0.6-30.8 6.2 0.1 0.2 0.1 0.3-0.2 0.5-3.2 2-7.7 5.5-11.3 10.1-3.6 4.6-6.4 10.4-7.6 15.6 0.1-0.3 0.2-0.8 0.4-0.6-2.6 10.3-1.9 19.1 1.7 26.7 0.2-0.2-0.5-1.2 0.1-1.1 0.4 1.1 0.9 2.3 1.5 3.4 0.7 1.6 1.5 3.7 2.6 4.2-2.8-5.5-4.7-11.8-4.9-17.4 0.4 0.8 0.3 2.5 0.9 3.2 0.2-3.8-0.7-8.9 0.6-12.5-0.3 1.9-0.5 4.5-0.3 7.1 0 1.9 0.9 7.2 1.5 7.7-0.1-0.1-0.1-0.6 0-0.6 0.3 0.6-0.4 0.9 0.1 1 0-0.2 0.1-0.2 0.2-0.2 1 2.2 2.3 5.6 3.3 7.3 1.2 2.2 2.8 4.2 4.6 6 0 0.1 0.1 0.1 0.1 0.2 0.2 0.5 0.9 1.1 1.1 1.5 0.1 0.2-0.1 0.5 0 0.7 1.5 2.8 3.7 5.6 6.4 7.8 1.7 2 4.4 4.1 7.7 5.9 3.2 1.7 6.9 3.1 10.3 3.9 2.4 0.6 5.3 0.7 7.1 1.1 2.4 0.5 6.6-0.2 8.7-0.6 12.6-1.9 25.1-10.5 31.4-22.9 6.5-12.5 6.3-27.8 0.7-39.5" fill="#000000" fill-rule="nonzero" stroke="none" stroke-width="1" stroke-linecap="butt" stroke-linejoin="miter" stroke-miterlimit="10" stroke-dasharray="" stroke-dashoffset="0" font-family="none" font-weight="none" font-size="none" text-anchor="none" style="mix-blend-mode: normal" data-fill-palette-color="tertiary"></path></g><g transform="matrix(1,0,0,1,80,108.88244988991107)"><svg viewBox="0 0 160 142.23510022017786" height="142.23510022017786" width="160"><g><svg viewBox="0 0 160 142.23510022017786" height="142.23510022017786" width="160"><g><svg viewBox="0 0 160 142.23510022017786" height="142.23510022017786" width="160"><g transform="matrix(1,0,0,1,0,86.18060854002859)"><svg viewBox="0 0 160 56.054491680149276" height="56.054491680149276" width="160"><g id="textblocktransform"><svg viewBox="0 0 160 56.054491680149276" height="56.054491680149276" width="160" id="textblock"><g><svg viewBox="0 0 160 36.90888119953864" height="36.90888119953864" width="160"><g transform="matrix(1,0,0,1,0,0)"><svg width="160" viewBox="0.85 -37.5 216.73000000000002 50" height="36.90888119953864" data-palette-color="#39cccc"><path d="M17.8-36.9L17.8-0.95Q19.85-0.5 22.03 0.55 24.2 1.6 26.5 2.7 28.8 3.8 31.18 4.63 33.55 5.45 35.95 5.45L35.95 5.45Q36.9 5.45 37.9 5.28 38.9 5.1 39.9 4.65L39.9 4.65Q39.95 4.9 39.95 5.1 39.95 5.3 39.95 5.55L39.95 5.55Q39.95 6.7 39.6 7.93 39.25 9.15 38.58 10.15 37.9 11.15 36.85 11.83 35.8 12.5 34.4 12.5L34.4 12.5Q32.8 12.5 31.13 11.65 29.45 10.8 27.65 9.55 25.85 8.3 23.95 6.83 22.05 5.35 20.05 4.1 18.05 2.85 15.95 2 13.85 1.15 11.7 1.15L11.7 1.15Q11.4 1.15 11.13 1.15 10.85 1.15 10.55 1.2L10.55 1.2 10.55-33.4Q8.15-32.25 6.88-30.08 5.6-27.9 5.6-24.8L5.6-24.8Q5.6-23.45 5.83-22.48 6.05-21.5 6.33-20.85 6.6-20.2 6.9-19.78 7.2-19.35 7.35-19.15L7.35-19.15Q4.35-19.15 2.6-20.55 0.85-21.95 0.85-24.95L0.85-24.95Q0.85-27.5 2.1-29.7 3.35-31.9 5.43-33.52 7.5-35.15 10.18-36.08 12.85-37 15.7-37L15.7-37Q16.25-37 16.78-36.98 17.3-36.95 17.8-36.9L17.8-36.9ZM42.2-32.8L42.2-32.8Q41.15-32.1 40.37-30.2 39.6-28.3 39.07-25.85 38.55-23.4 38.3-20.7 38.05-18 38.05-15.6L38.05-15.6Q38.05-12 38.57-9.75 39.1-7.5 39.87-6.25 40.65-5 41.52-4.58 42.4-4.15 43.1-4.15L43.1-4.15Q44.6-4.15 45.72-5.53 46.85-6.9 47.62-9.2 48.4-11.5 48.77-14.48 49.15-17.45 49.15-20.65L49.15-20.65Q49.15-25.2 48.42-28.05 47.7-30.9 46.45-32.5 45.2-34.1 43.52-34.65 41.85-35.2 40-35.2L40-35.2Q37.6-35.2 35.45-34.48 33.3-33.75 31.7-32.35 30.1-30.95 29.17-28.9 28.25-26.85 28.25-24.25L28.25-24.25Q28.25-22.4 28.65-21.43 29.05-20.45 29.6-19.65L29.6-19.65Q26.75-19.65 25.12-20.93 23.5-22.2 23.5-25L23.5-25Q23.5-27.55 24.87-29.83 26.25-32.1 28.6-33.8 30.95-35.5 34.12-36.5 37.3-37.5 40.9-37.5L40.9-37.5Q45.25-37.5 48.2-36.05 51.15-34.6 52.9-32.1 54.65-29.6 55.4-26.3 56.15-23 56.15-19.35L56.15-19.35Q56.15-17.15 55.9-14.85 55.65-12.55 55.02-10.38 54.4-8.2 53.4-6.25 52.4-4.3 50.9-2.85 49.4-1.4 47.35-0.55 45.3 0.3 42.65 0.3L42.65 0.3Q40.25 0.3 38.07-0.5 35.9-1.3 34.22-3.15 32.55-5 31.57-8.03 30.6-11.05 30.6-15.55L30.6-15.55Q30.6-18.25 31.02-21.35 31.45-24.45 32.5-27.08 33.55-29.7 35.3-31.45 37.05-33.2 39.65-33.2L39.65-33.2Q40.2-33.2 40.85-33.13 41.5-33.05 42.2-32.8ZM79.45-20.95L85.34-20.9 85.34-0.1Q85.34 1.8 84.87 3.65 84.4 5.5 83.22 7 82.05 8.5 80.09 9.43 78.15 10.35 75.2 10.35L75.2 10.35Q72.84 10.35 71.2 9.75 69.55 9.15 68.5 8.15 67.45 7.15 66.97 5.88 66.5 4.6 66.5 3.25L66.5 3.25Q66.5 2.15 66.82 0.98 67.15-0.2 67.84-1.18 68.55-2.15 69.72-2.78 70.9-3.4 72.59-3.4L72.59-3.4Q73.05-3.4 73.77-3.28 74.5-3.15 75.22-2.65 75.95-2.15 76.45-1.13 76.95-0.1 76.95 1.7L76.95 1.7Q76.25 1 75.59 0.83 74.95 0.65 74.45 0.65L74.45 0.65Q72.5 0.65 71.75 1.6 71 2.55 71 3.7L71 3.7Q71 4.45 71.25 5.2 71.5 5.95 72.02 6.53 72.55 7.1 73.27 7.48 74 7.85 75 7.85L75 7.85Q76.65 7.85 77.72 6.63 78.8 5.4 78.8 2.7L78.8 2.7 78.8-9.7Q77.65-7.6 75.75-6.53 73.84-5.45 71.25-5.45L71.25-5.45Q68.7-5.45 66.5-6.5 64.3-7.55 62.65-9.55 61-11.55 60.07-14.45 59.15-17.35 59.15-21L59.15-21Q59.15-24.5 60.07-27.53 61-30.55 62.8-32.75 64.59-34.95 67.27-36.23 69.95-37.5 73.5-37.5L73.5-37.5Q75.45-37.5 77.4-37.08 79.34-36.65 80.92-35.7 82.5-34.75 83.47-33.25 84.45-31.75 84.45-29.6L84.45-29.6Q84.45-28.05 83.82-27.13 83.2-26.2 81.7-26.2L81.7-26.2Q81.09-26.2 80-26.43 78.9-26.65 78-27.5L78-27.5Q78.7-27.75 79.05-28.83 79.4-29.9 79.4-30.7L79.4-30.7Q79.4-31.15 79.25-31.85 79.09-32.55 78.67-33.23 78.25-33.9 77.42-34.38 76.59-34.85 75.25-34.85L75.25-34.85Q73.25-34.85 71.67-33.73 70.09-32.6 69.02-30.73 67.95-28.85 67.4-26.4 66.84-23.95 66.84-21.25L66.84-21.25Q66.84-18.3 67.47-16.15 68.09-14 69.07-12.58 70.05-11.15 71.25-10.48 72.45-9.8 73.65-9.8L73.65-9.8Q76.09-9.8 77.67-12.6 79.25-15.4 79.45-20.95L79.45-20.95ZM104.99-37.4L104.99 0 97.79 0 97.79-33.9Q95.39-32.75 94.09-30.63 92.79-28.5 92.79-25.5L92.79-25.5Q92.79-23.95 93.02-22.95 93.24-21.95 93.52-21.33 93.79-20.7 94.09-20.33 94.39-19.95 94.54-19.65L94.54-19.65Q91.54-19.65 89.79-21.03 88.04-22.4 88.04-25.7L88.04-25.7Q88.04-28.1 89.29-30.23 90.54-32.35 92.62-33.98 94.69-35.6 97.37-36.55 100.04-37.5 102.89-37.5L102.89-37.5Q103.44-37.5 103.97-37.48 104.49-37.45 104.99-37.4L104.99-37.4ZM130.09-31.2L130.09-31.2Q130.09-29.3 129.27-28.13 128.44-26.95 126.89-26.95L126.89-26.95Q125.49-26.95 124.39-28L124.39-28Q125.09-28.5 125.47-29.45 125.84-30.4 125.84-31.4L125.84-31.4Q125.84-32.95 124.84-33.95 123.84-34.95 121.79-34.95L121.79-34.95Q119.54-34.95 118.54-33.7 117.54-32.45 117.54-30.35L117.54-30.35Q117.54-27.9 118.72-26.35 119.89-24.8 121.64-23.58 123.39-22.35 125.42-21.25 127.44-20.15 129.19-18.65 130.94-17.15 132.12-15.03 133.29-12.9 133.29-9.6L133.29-9.6Q133.29-6.8 132.37-4.8 131.44-2.8 129.84-1.53 128.24-0.25 126.04 0.33 123.84 0.9 121.24 0.9L121.24 0.9Q118.94 0.9 116.72 0.43 114.49-0.05 112.77-1.13 111.04-2.2 109.99-3.98 108.94-5.75 108.94-8.3L108.94-8.3Q108.94-10 109.42-11.4 109.89-12.8 110.72-13.75 111.54-14.7 112.64-15.23 113.74-15.75 114.94-15.75L114.94-15.75Q115.54-15.75 116.24-15.6 116.94-15.45 117.64-15.08 118.34-14.7 118.94-14.05 119.54-13.4 119.89-12.45L119.89-12.45Q118.99-12.45 118.09-12.25 117.19-12.05 116.47-11.55 115.74-11.05 115.29-10.18 114.84-9.3 114.84-7.95L114.84-7.95Q114.84-5.35 116.44-4.23 118.04-3.1 120.44-3.1L120.44-3.1Q122.84-3.1 124.14-4.25 125.44-5.4 125.44-8.2L125.44-8.2Q125.44-10.8 124.37-12.6 123.29-14.4 121.64-15.75 119.99-17.1 118.12-18.28 116.24-19.45 114.59-20.83 112.94-22.2 111.87-24.05 110.79-25.9 110.79-28.6L110.79-28.6Q110.79-32.95 113.69-35.23 116.59-37.5 121.59-37.5L121.59-37.5Q122.29-37.5 123.72-37.38 125.14-37.25 126.57-36.63 127.99-36 129.04-34.73 130.09-33.45 130.09-31.2ZM150.59-37.4L150.59-22.5 157.94-22.5 157.94-37.4 165.14-37.4 165.14 0 157.94 0 157.94-18.8 150.59-18.8 150.59 0 143.39 0 143.39-33.9Q140.99-32.75 139.69-30.63 138.39-28.5 138.39-25.5L138.39-25.5Q138.39-23.9 138.61-22.93 138.84-21.95 139.11-21.3 139.39-20.65 139.69-20.3 139.99-19.95 140.14-19.65L140.14-19.65Q137.14-19.65 135.39-21.03 133.64-22.4 133.64-25.7L133.64-25.7Q133.64-28.1 134.89-30.23 136.14-32.35 138.21-33.98 140.29-35.6 142.96-36.55 145.64-37.5 148.49-37.5L148.49-37.5Q149.04-37.5 149.56-37.48 150.09-37.45 150.59-37.4L150.59-37.4ZM185.28-37.4L185.28 0 178.09 0 178.09-33.9Q175.69-32.75 174.38-30.63 173.09-28.5 173.09-25.5L173.09-25.5Q173.09-23.95 173.31-22.95 173.53-21.95 173.81-21.33 174.09-20.7 174.38-20.33 174.69-19.95 174.84-19.65L174.84-19.65Q171.84-19.65 170.09-21.03 168.34-22.4 168.34-25.7L168.34-25.7Q168.34-28.1 169.59-30.23 170.84-32.35 172.91-33.98 174.99-35.6 177.66-36.55 180.34-37.5 183.19-37.5L183.19-37.5Q183.74-37.5 184.26-37.48 184.78-37.45 185.28-37.4L185.28-37.4ZM198.23-31.8L205.43-32.8 205.43-16.1Q206.98-16.25 208.16-17.28 209.33-18.3 210.16-19.85 210.98-21.4 211.41-23.28 211.83-25.15 211.83-27.05L211.83-27.05Q211.83-28.25 211.56-29.68 211.28-31.1 210.41-32.33 209.53-33.55 207.86-34.38 206.18-35.2 203.38-35.2L203.38-35.2Q201.13-35.2 199.28-34.6 197.43-34 196.08-32.77 194.73-31.55 193.98-29.63 193.23-27.7 193.23-25.1L193.23-25.1Q193.23-23.75 193.41-22.88 193.58-22 193.86-21.4 194.13-20.8 194.43-20.4 194.73-20 194.98-19.65L194.98-19.65Q191.98-19.65 190.23-21.05 188.48-22.45 188.48-25.45L188.48-25.45Q188.48-28 189.71-30.2 190.93-32.4 193.06-34.02 195.18-35.65 198.01-36.58 200.83-37.5 203.98-37.5L203.98-37.5Q207.03-37.5 209.53-36.7 212.03-35.9 213.83-34.43 215.63-32.95 216.61-30.88 217.58-28.8 217.58-26.25L217.58-26.25Q217.58-24.2 216.83-22.05 216.08-19.9 214.58-18.18 213.08-16.45 210.86-15.35 208.63-14.25 205.68-14.25L205.68-14.25 205.43-14.25 205.43 0 198.23 0 198.23-31.8Z" opacity="1" transform="matrix(1,0,0,1,0,0)" fill="#000000" class="undefined-text-0" data-fill-palette-color="primary" id="text-0"></path></svg></g></svg></g><g transform="matrix(1,0,0,1,0,45.622182237600924)"><svg viewBox="0 0 160 10.43230944254835" height="10.43230944254835" width="160"><g transform="matrix(1,0,0,1,0,0)"><svg width="160" viewBox="2.8999999999999995 -37.6 703.12 45.85" height="10.43230944254835" data-palette-color="#39cccc"><path d="M18.8 0.5L18.8 0.5Q13.95 0.5 10.35-1.8 6.75-4.1 4.83-8.35 2.9-12.6 2.9-18.4L2.9-18.4Q2.9-24.4 4.93-28.7 6.95-33 10.6-35.3 14.25-37.6 19.1-37.6L19.1-37.6Q22.75-37.6 25.78-36.15 28.8-34.7 30.73-32.38 32.65-30.05 33.1-27.4L33.1-27.4Q33.2-26.9 33.1-26.73 33-26.55 32.65-26.45L32.65-26.45 28.1-25.75Q27.8-25.7 27.68-25.85 27.55-26 27.5-26.35L27.5-26.35Q27.15-28.25 26-29.78 24.85-31.3 23.08-32.23 21.3-33.15 19-33.15L19-33.15Q15.9-33.15 13.7-31.55 11.5-29.95 10.38-26.75 9.25-23.55 9.25-18.7L9.25-18.7Q9.25-13.6 10.4-10.35 11.55-7.1 13.78-5.53 16-3.95 19.15-3.95L19.15-3.95Q21.3-3.95 22.95-4.65 24.6-5.35 25.7-6.55 26.8-7.75 27.4-9.15 28-10.55 28.15-11.95L28.15-11.95 28.2-14.45Q28.3-15.05 27.7-15.05L27.7-15.05 20.2-15.05Q19.9-15.05 19.75-15.18 19.6-15.3 19.6-15.65L19.6-15.65 19.6-18.3Q19.6-18.85 20.15-18.85L20.15-18.85 32.85-18.8Q33.35-18.8 33.6-18.57 33.85-18.35 33.85-18L33.85-18 33.85-0.65Q33.85-0.3 33.68-0.15 33.5 0 33.2 0L33.2 0 31.9 0Q31.55 0 31.28-0.13 31-0.25 30.85-0.65L30.85-0.65 30.05-4.95Q30-5.2 29.88-5.2 29.75-5.2 29.55-4.95L29.55-4.95Q28.65-3.55 27.23-2.3 25.8-1.05 23.73-0.28 21.65 0.5 18.8 0.5L18.8 0.5ZM44.7-11.4L44.7-11.4Q44.7-9.15 45.77-7.33 46.85-5.5 48.67-4.42 50.5-3.35 52.75-3.35L52.75-3.35Q55.05-3.35 56.85-4.3 58.65-5.25 60.15-7.25L60.15-7.25Q60.3-7.45 60.45-7.48 60.6-7.5 60.9-7.35L60.9-7.35 63.45-6.15Q64-5.9 63.55-5.35L63.55-5.35Q62.15-3.3 60.47-2 58.8-0.7 56.75-0.1 54.7 0.5 52.2 0.5L52.2 0.5Q48.4 0.5 45.5-1.2 42.6-2.9 40.92-5.95 39.25-9 39.25-12.95L39.25-12.95Q39.25-17.3 40.95-20.43 42.65-23.55 45.57-25.28 48.5-27 52.1-27L52.1-27Q55.8-27 58.57-25.38 61.35-23.75 62.9-20.7 64.45-17.65 64.45-13.3L64.45-13.3Q64.45-12.85 64.35-12.53 64.25-12.2 63.7-12.2L63.7-12.2 45.2-12.2Q44.95-12.2 44.82-11.98 44.7-11.75 44.7-11.4L44.7-11.4ZM44.8-15.4L58.35-15.35Q58.9-15.35 59.05-15.5 59.2-15.65 59.2-16.05L59.2-16.05Q59.2-17.95 58.37-19.65 57.55-21.35 56.02-22.4 54.5-23.45 52.25-23.45L52.25-23.45Q49.9-23.45 48.22-22.33 46.55-21.2 45.67-19.35 44.8-17.5 44.8-15.4L44.8-15.4ZM83.45-22.7L77.45-22.7Q77-22.7 77-22.2L77-22.2 77-7.55Q77-5.4 77.8-4.63 78.6-3.85 80.25-3.85L80.25-3.85 83.45-3.85Q83.75-3.85 83.9-3.68 84.05-3.5 84.05-3.25L84.05-3.25 84.05-1.1Q84.05-0.45 83.3-0.25L83.3-0.25Q82.65-0.15 81.7-0.1 80.75-0.05 79.82-0.03 78.9 0 78.2 0L78.2 0Q74.95 0 73.32-1.53 71.7-3.05 71.7-6.25L71.7-6.25 71.7-22.1Q71.7-22.7 71.2-22.7L71.2-22.7 67.45-22.7Q66.8-22.7 66.8-23.3L66.8-23.3 66.8-25.95Q66.8-26.5 67.4-26.5L67.4-26.5 71.4-26.5Q71.8-26.5 71.8-26.95L71.8-26.95 72.4-34.8Q72.45-35.5 73-35.5L73-35.5 76.45-35.5Q77.1-35.5 77.1-34.7L77.1-34.7 77.1-26.95Q77.1-26.5 77.55-26.5L77.55-26.5 83.55-26.5Q84.15-26.5 84.15-25.95L84.15-25.95 84.15-23.3Q84.15-22.7 83.45-22.7L83.45-22.7ZM101.59 8.25L101.59 8.25Q100.09 8.25 99.32 8.15 98.54 8.05 98.54 7.5L98.54 7.5 98.54 4.95Q98.54 4.65 98.82 4.45 99.09 4.25 99.94 4.25L99.94 4.25 103.19 4.25Q104.24 4.25 105.12 3.63 105.99 3 106.54 2.05 107.09 1.1 107.27 0.08 107.44-0.95 107.14-1.75L107.14-1.75 97.59-25.55Q97.44-25.9 97.59-26.2 97.74-26.5 98.24-26.5L98.24-26.5 102.34-26.5Q102.64-26.5 102.89-26.33 103.14-26.15 103.19-25.85L103.19-25.85 110.09-7.85Q110.24-7.4 110.49-7.4 110.74-7.4 110.94-8L110.94-8 117.74-25.9Q117.84-26.15 118.04-26.33 118.24-26.5 118.54-26.5L118.54-26.5 121.49-26.5Q121.89-26.5 122.07-26.23 122.24-25.95 122.04-25.65L122.04-25.65 111.29 1.6Q110.49 3.65 109.54 4.95 108.59 6.25 107.44 6.98 106.29 7.7 104.87 7.98 103.44 8.25 101.59 8.25L101.59 8.25ZM137.09 0.5L137.09 0.5Q133.24 0.5 130.34-1.23 127.44-2.95 125.84-6.03 124.24-9.1 124.24-13.1L124.24-13.1Q124.24-17.25 125.89-20.38 127.54-23.5 130.46-25.25 133.39-27 137.14-27L137.14-27Q141.04-27 143.91-25.23 146.79-23.45 148.39-20.33 149.99-17.2 149.99-13.15L149.99-13.15Q149.99-9.15 148.36-6.08 146.74-3 143.84-1.25 140.94 0.5 137.09 0.5L137.09 0.5ZM137.19-3.25L137.19-3.25Q139.54-3.25 141.19-4.45 142.84-5.65 143.71-7.88 144.59-10.1 144.59-13.25L144.59-13.25Q144.59-16.4 143.71-18.65 142.84-20.9 141.16-22.13 139.49-23.35 137.14-23.35L137.14-23.35Q134.79-23.35 133.11-22.13 131.44-20.9 130.54-18.65 129.64-16.4 129.64-13.25L129.64-13.25Q129.64-10.1 130.54-7.88 131.44-5.65 133.11-4.45 134.79-3.25 137.19-3.25L137.19-3.25ZM165.19-3.5L165.19-3.5Q167.19-3.5 168.96-4.58 170.74-5.65 172.44-7.45L172.44-7.45 172.44-25.65Q172.44-26.5 173.39-26.5L173.39-26.5 176.99-26.5Q177.79-26.5 177.79-25.7L177.79-25.7 177.69-0.7Q177.69 0 177.09 0L177.09 0 173.19 0Q172.59 0 172.59-0.65L172.59-0.65 172.59-3.45Q172.59-3.7 172.46-3.78 172.34-3.85 172.09-3.6L172.09-3.6Q169.54-1.3 167.44-0.4 165.34 0.5 163.14 0.5L163.14 0.5Q160.89 0.5 159.11-0.45 157.34-1.4 156.31-3.15 155.29-4.9 155.29-7.25L155.29-7.25 155.29-25.6Q155.29-26.5 156.19-26.5L156.19-26.5 159.84-26.5Q160.59-26.5 160.59-25.7L160.59-25.7 160.59-8.35Q160.59-6.2 161.81-4.85 163.04-3.5 165.19-3.5L165.19-3.5ZM185.53 0L185.53 0Q185.13 0 184.93-0.2 184.73-0.4 184.73-0.8L184.73-0.8 184.73-25.75Q184.73-26.5 185.38-26.5L185.38-26.5 189.23-26.5Q189.83-26.5 189.83-25.85L189.83-25.85 189.83-22.7Q189.83-22.4 190.01-22.35 190.18-22.3 190.38-22.55L190.38-22.55Q191.63-24.05 192.91-25.03 194.18-26 195.48-26.5 196.78-27 198.08-27L198.08-27Q199.83-27 199.83-26.3L199.83-26.3 199.83-22.4Q199.83-21.8 199.28-21.9L199.28-21.9Q198.68-22.05 198.01-22.1 197.33-22.15 196.63-22.15L196.63-22.15Q195.58-22.15 194.43-21.7 193.28-21.25 192.31-20.48 191.33-19.7 190.68-18.75 190.03-17.8 190.03-16.8L190.03-16.8 190.03-0.85Q190.03 0 189.08 0L189.08 0 185.53 0ZM220.48-36.35L220.48-0.95Q220.48-0.4 220.25-0.2 220.03 0 219.43 0L219.43 0 216.03 0Q215.13 0 215.13-0.8L215.13-0.8 215.23-36.35Q215.23-37.1 215.88-37.1L215.88-37.1 219.83-37.1Q220.48-37.1 220.48-36.35L220.48-36.35ZM238.98 0.5L238.98 0.5Q235.13 0.5 232.23-1.23 229.33-2.95 227.73-6.03 226.13-9.1 226.13-13.1L226.13-13.1Q226.13-17.25 227.78-20.38 229.43-23.5 232.35-25.25 235.28-27 239.03-27L239.03-27Q242.93-27 245.8-25.23 248.68-23.45 250.28-20.33 251.88-17.2 251.88-13.15L251.88-13.15Q251.88-9.15 250.25-6.08 248.63-3 245.73-1.25 242.83 0.5 238.98 0.5L238.98 0.5ZM239.08-3.25L239.08-3.25Q241.43-3.25 243.08-4.45 244.73-5.65 245.6-7.88 246.48-10.1 246.48-13.25L246.48-13.25Q246.48-16.4 245.6-18.65 244.73-20.9 243.05-22.13 241.38-23.35 239.03-23.35L239.03-23.35Q236.68-23.35 235-22.13 233.33-20.9 232.43-18.65 231.53-16.4 231.53-13.25L231.53-13.25Q231.53-10.1 232.43-7.88 233.33-5.65 235-4.45 236.68-3.25 239.08-3.25L239.08-3.25ZM272.42-3L272.42-3Q270.67-1.3 268.57-0.4 266.47 0.5 263.82 0.5L263.82 0.5Q259.97 0.5 257.77-1.5 255.57-3.5 255.57-6.75L255.57-6.75Q255.57-9.5 257.15-11.45 258.72-13.4 261.75-14.55 264.77-15.7 269.12-15.9L269.12-15.9 272.37-16.15Q272.67-16.2 272.92-16.35 273.17-16.5 273.17-16.9L273.17-16.9 273.17-18.15Q273.17-20.6 271.67-22.03 270.17-23.45 267.57-23.45L267.57-23.45Q265.62-23.45 263.97-22.55 262.32-21.65 261.02-19.75L261.02-19.75Q260.87-19.5 260.72-19.4 260.57-19.3 260.17-19.4L260.17-19.4 256.77-20.4Q256.57-20.5 256.5-20.68 256.42-20.85 256.62-21.35L256.62-21.35Q258.07-24.05 260.9-25.53 263.72-27 267.82-27L267.82-27Q271.42-27 273.72-25.98 276.02-24.95 277.15-23.03 278.27-21.1 278.27-18.5L278.27-18.5 278.27-0.85Q278.27-0.35 278.1-0.18 277.92 0 277.52 0L277.52 0 274.12 0Q273.77 0 273.57-0.28 273.37-0.55 273.32-1L273.32-1 273.27-2.9Q273.12-3.7 272.42-3L272.42-3ZM273.17-12.45L273.17-12.45Q273.17-13.3 272.47-13.2L272.47-13.2 269.77-13Q267.77-12.9 266.12-12.48 264.47-12.05 263.3-11.35 262.12-10.65 261.45-9.68 260.77-8.7 260.77-7.4L260.77-7.4Q260.77-5.45 262.15-4.33 263.52-3.2 265.87-3.2L265.87-3.2Q267.37-3.2 268.7-3.73 270.02-4.25 271.02-5.05L271.02-5.05Q272.02-5.9 272.6-6.8 273.17-7.7 273.17-8.55L273.17-8.55 273.17-12.45ZM303.77 0L303.77 0Q303.42 0 303.2-0.2 302.97-0.4 302.97-0.8L302.97-0.8 302.97-2.7Q302.97-3.05 302.77-3.1 302.57-3.15 302.32-2.9L302.32-2.9Q301.67-2.3 300.67-1.5 299.67-0.7 298.17-0.1 296.67 0.5 294.62 0.5L294.62 0.5Q291.52 0.5 289.05-1 286.57-2.5 285.15-5.48 283.72-8.45 283.72-12.9L283.72-12.9Q283.72-17.15 285.22-20.3 286.72-23.45 289.32-25.23 291.92-27 295.17-27L295.17-27Q297.52-27 299.15-26.25 300.77-25.5 302.07-24.35L302.07-24.35Q302.47-24 302.67-24.08 302.87-24.15 302.87-24.7L302.87-24.7 302.87-36.35Q302.87-37.1 303.52-37.1L303.52-37.1 307.52-37.1Q308.17-37.1 308.17-36.35L308.17-36.35 308.17-0.85Q308.17-0.4 307.97-0.2 307.77 0 307.22 0L307.22 0 303.77 0ZM302.87-20.3L302.87-20.3Q301.42-21.75 299.97-22.55 298.52-23.35 296.72-23.35L296.72-23.35Q294.52-23.35 292.8-22.2 291.07-21.05 290.1-18.78 289.12-16.5 289.12-13.05L289.12-13.05Q289.12-9.55 290.12-7.35 291.12-5.15 292.8-4.13 294.47-3.1 296.47-3.1L296.47-3.1Q298.27-3.1 299.72-3.95 301.17-4.8 302.02-6.08 302.87-7.35 302.87-8.6L302.87-8.6 302.87-20.3ZM340.07-22.7L334.07-22.7Q333.62-22.7 333.62-22.2L333.62-22.2 333.62-7.55Q333.62-5.4 334.42-4.63 335.22-3.85 336.87-3.85L336.87-3.85 340.07-3.85Q340.37-3.85 340.52-3.68 340.67-3.5 340.67-3.25L340.67-3.25 340.67-1.1Q340.67-0.45 339.92-0.25L339.92-0.25Q339.27-0.15 338.32-0.1 337.37-0.05 336.44-0.03 335.52 0 334.82 0L334.82 0Q331.57 0 329.94-1.53 328.32-3.05 328.32-6.25L328.32-6.25 328.32-22.1Q328.32-22.7 327.82-22.7L327.82-22.7 324.07-22.7Q323.42-22.7 323.42-23.3L323.42-23.3 323.42-25.95Q323.42-26.5 324.02-26.5L324.02-26.5 328.02-26.5Q328.42-26.5 328.42-26.95L328.42-26.95 329.02-34.8Q329.07-35.5 329.62-35.5L329.62-35.5 333.07-35.5Q333.72-35.5 333.72-34.7L333.72-34.7 333.72-26.95Q333.72-26.5 334.17-26.5L334.17-26.5 340.17-26.5Q340.77-26.5 340.77-25.95L340.77-25.95 340.77-23.3Q340.77-22.7 340.07-22.7L340.07-22.7ZM356.56 0.5L356.56 0.5Q352.71 0.5 349.81-1.23 346.91-2.95 345.31-6.03 343.71-9.1 343.71-13.1L343.71-13.1Q343.71-17.25 345.36-20.38 347.01-23.5 349.94-25.25 352.86-27 356.61-27L356.61-27Q360.51-27 363.39-25.23 366.26-23.45 367.86-20.33 369.46-17.2 369.46-13.15L369.46-13.15Q369.46-9.15 367.84-6.08 366.21-3 363.31-1.25 360.41 0.5 356.56 0.5L356.56 0.5ZM356.66-3.25L356.66-3.25Q359.01-3.25 360.66-4.45 362.31-5.65 363.19-7.88 364.06-10.1 364.06-13.25L364.06-13.25Q364.06-16.4 363.19-18.65 362.31-20.9 360.64-22.13 358.96-23.35 356.61-23.35L356.61-23.35Q354.26-23.35 352.59-22.13 350.91-20.9 350.01-18.65 349.11-16.4 349.11-13.25L349.11-13.25Q349.11-10.1 350.01-7.88 350.91-5.65 352.59-4.45 354.26-3.25 356.66-3.25L356.66-3.25ZM386.46 0L386.46 0Q385.66 0 385.66-0.8L385.66-0.8 385.66-25.75Q385.66-26.5 386.31-26.5L386.31-26.5 390.21-26.5Q390.81-26.5 390.81-25.85L390.81-25.85 390.81-23.1Q390.81-22.85 390.96-22.78 391.11-22.7 391.31-22.95L391.31-22.95Q392.86-24.2 394.21-25.13 395.56-26.05 396.98-26.53 398.41-27 400.06-27L400.06-27Q402.91-27 404.71-25.68 406.51-24.35 407.16-22.5L407.16-22.5Q407.26-22.3 407.43-22.35 407.61-22.4 407.81-22.6L407.81-22.6Q409.26-23.95 410.71-24.93 412.16-25.9 413.66-26.45 415.16-27 416.81-27L416.81-27Q420.41-27 422.43-24.9 424.46-22.8 424.46-19.25L424.46-19.25 424.46-0.9Q424.46 0 423.56 0L423.56 0 419.86 0Q419.51 0 419.33-0.18 419.16-0.35 419.16-0.8L419.16-0.8 419.16-18.3Q419.16-20.5 418.06-21.75 416.96-23 414.76-23L414.76-23Q413.46-23 412.26-22.5 411.06-22 410.08-21.28 409.11-20.55 408.36-19.85L408.36-19.85Q408.01-19.5 407.86-19.2 407.71-18.9 407.71-18.4L407.71-18.4 407.71-0.9Q407.71 0 406.81 0L406.81 0 403.16 0Q402.81 0 402.61-0.18 402.41-0.35 402.41-0.8L402.41-0.8 402.41-18.3Q402.41-20.5 401.36-21.75 400.31-23 398.01-23L398.01-23Q396.11-23 394.53-22.08 392.96-21.15 390.96-19.25L390.96-19.25 390.96-0.85Q390.96 0 390.01 0L390.01 0 386.46 0ZM446.11-3L446.11-3Q444.36-1.3 442.26-0.4 440.16 0.5 437.51 0.5L437.51 0.5Q433.66 0.5 431.46-1.5 429.26-3.5 429.26-6.75L429.26-6.75Q429.26-9.5 430.83-11.45 432.41-13.4 435.43-14.55 438.46-15.7 442.81-15.9L442.81-15.9 446.06-16.15Q446.36-16.2 446.61-16.35 446.86-16.5 446.86-16.9L446.86-16.9 446.86-18.15Q446.86-20.6 445.36-22.03 443.86-23.45 441.26-23.45L441.26-23.45Q439.31-23.45 437.66-22.55 436.01-21.65 434.71-19.75L434.71-19.75Q434.56-19.5 434.41-19.4 434.26-19.3 433.86-19.4L433.86-19.4 430.46-20.4Q430.26-20.5 430.18-20.68 430.11-20.85 430.31-21.35L430.31-21.35Q431.76-24.05 434.58-25.53 437.41-27 441.51-27L441.51-27Q445.11-27 447.41-25.98 449.71-24.95 450.83-23.03 451.96-21.1 451.96-18.5L451.96-18.5 451.96-0.85Q451.96-0.35 451.78-0.18 451.61 0 451.21 0L451.21 0 447.81 0Q447.46 0 447.26-0.28 447.06-0.55 447.01-1L447.01-1 446.96-2.9Q446.81-3.7 446.11-3L446.11-3ZM446.86-12.45L446.86-12.45Q446.86-13.3 446.16-13.2L446.16-13.2 443.46-13Q441.46-12.9 439.81-12.48 438.16-12.05 436.98-11.35 435.81-10.65 435.13-9.68 434.46-8.7 434.46-7.4L434.46-7.4Q434.46-5.45 435.83-4.33 437.21-3.2 439.56-3.2L439.56-3.2Q441.06-3.2 442.38-3.73 443.71-4.25 444.71-5.05L444.71-5.05Q445.71-5.9 446.28-6.8 446.86-7.7 446.86-8.55L446.86-8.55 446.86-12.45ZM459.55 0L459.55 0Q459.15 0 458.95-0.2 458.75-0.4 458.75-0.8L458.75-0.8 458.75-25.75Q458.75-26.5 459.4-26.5L459.4-26.5 463.25-26.5Q463.85-26.5 463.85-25.85L463.85-25.85 463.85-22.7Q463.85-22.4 464.03-22.35 464.2-22.3 464.4-22.55L464.4-22.55Q465.65-24.05 466.93-25.03 468.2-26 469.5-26.5 470.8-27 472.1-27L472.1-27Q473.85-27 473.85-26.3L473.85-26.3 473.85-22.4Q473.85-21.8 473.3-21.9L473.3-21.9Q472.7-22.05 472.03-22.1 471.35-22.15 470.65-22.15L470.65-22.15Q469.6-22.15 468.45-21.7 467.3-21.25 466.33-20.48 465.35-19.7 464.7-18.75 464.05-17.8 464.05-16.8L464.05-16.8 464.05-0.85Q464.05 0 463.1 0L463.1 0 459.55 0ZM502.55-0.95L502.55-0.95Q502.75-0.6 502.63-0.3 502.5 0 502 0L502 0 497.55 0Q497.2 0 496.95-0.2 496.7-0.4 496.55-0.75L496.55-0.75 489.7-12.85Q489.6-13.15 489.45-13.2 489.3-13.25 489.05-12.95L489.05-12.95 484.3-8.2Q484.1-8 484-7.78 483.9-7.55 483.9-7.15L483.9-7.15 483.9-0.95Q483.9-0.4 483.68-0.2 483.45 0 482.9 0L482.9 0 479.45 0Q478.95 0 478.78-0.18 478.6-0.35 478.6-0.8L478.6-0.8 478.6-36.35Q478.6-37.1 479.25-37.1L479.25-37.1 483.25-37.1Q483.9-37.1 483.9-36.35L483.9-36.35 483.9-14Q483.9-13.65 484.03-13.58 484.15-13.5 484.45-13.8L484.45-13.8 495.85-25.85Q496.5-26.5 497-26.5L497-26.5 500.75-26.5Q501.35-26.5 501.45-26.2 501.55-25.9 501.1-25.45L501.1-25.45 493.5-17.7Q493.3-17.5 493.25-17.3 493.2-17.1 493.4-16.65L493.4-16.65 502.55-0.95ZM509.8-11.4L509.8-11.4Q509.8-9.15 510.87-7.33 511.95-5.5 513.77-4.42 515.6-3.35 517.85-3.35L517.85-3.35Q520.15-3.35 521.95-4.3 523.75-5.25 525.25-7.25L525.25-7.25Q525.4-7.45 525.55-7.48 525.7-7.5 526-7.35L526-7.35 528.55-6.15Q529.1-5.9 528.65-5.35L528.65-5.35Q527.25-3.3 525.57-2 523.9-0.7 521.85-0.1 519.8 0.5 517.3 0.5L517.3 0.5Q513.5 0.5 510.6-1.2 507.7-2.9 506.02-5.95 504.35-9 504.35-12.95L504.35-12.95Q504.35-17.3 506.05-20.43 507.75-23.55 510.67-25.28 513.6-27 517.2-27L517.2-27Q520.9-27 523.67-25.38 526.45-23.75 528-20.7 529.55-17.65 529.55-13.3L529.55-13.3Q529.55-12.85 529.45-12.53 529.35-12.2 528.8-12.2L528.8-12.2 510.3-12.2Q510.05-12.2 509.92-11.98 509.8-11.75 509.8-11.4L509.8-11.4ZM509.9-15.4L523.45-15.35Q524-15.35 524.15-15.5 524.3-15.65 524.3-16.05L524.3-16.05Q524.3-17.95 523.47-19.65 522.65-21.35 521.12-22.4 519.6-23.45 517.35-23.45L517.35-23.45Q515-23.45 513.32-22.33 511.65-21.2 510.77-19.35 509.9-17.5 509.9-15.4L509.9-15.4ZM548.55-22.7L542.55-22.7Q542.1-22.7 542.1-22.2L542.1-22.2 542.1-7.55Q542.1-5.4 542.9-4.63 543.7-3.85 545.35-3.85L545.35-3.85 548.55-3.85Q548.85-3.85 549-3.68 549.15-3.5 549.15-3.25L549.15-3.25 549.15-1.1Q549.15-0.45 548.4-0.25L548.4-0.25Q547.75-0.15 546.8-0.1 545.85-0.05 544.92-0.03 544 0 543.3 0L543.3 0Q540.05 0 538.42-1.53 536.8-3.05 536.8-6.25L536.8-6.25 536.8-22.1Q536.8-22.7 536.3-22.7L536.3-22.7 532.55-22.7Q531.9-22.7 531.9-23.3L531.9-23.3 531.9-25.95Q531.9-26.5 532.5-26.5L532.5-26.5 536.5-26.5Q536.9-26.5 536.9-26.95L536.9-26.95 537.5-34.8Q537.55-35.5 538.1-35.5L538.1-35.5 541.55-35.5Q542.2-35.5 542.2-34.7L542.2-34.7 542.2-26.95Q542.2-26.5 542.65-26.5L542.65-26.5 548.65-26.5Q549.25-26.5 549.25-25.95L549.25-25.95 549.25-23.3Q549.25-22.7 548.55-22.7L548.55-22.7ZM578.89-26.5L578.89-26.5Q579.24-26.5 579.41-26.33 579.59-26.15 579.59-25.85L579.59-25.85 579.59-23.25Q579.59-22.7 578.94-22.7L578.94-22.7 573.74-22.7Q573.29-22.7 573.29-22.25L573.29-22.25 573.29-0.8Q573.29 0 572.64 0L572.64 0 568.59 0Q567.99 0 567.99-0.7L567.99-0.7 567.99-22.3Q567.99-22.7 567.64-22.7L567.64-22.7 563.14-22.7Q562.54-22.7 562.54-23.25L562.54-23.25 562.54-25.85Q562.54-26.15 562.69-26.33 562.84-26.5 563.19-26.5L563.19-26.5 567.49-26.5Q567.99-26.5 567.99-27.1L567.99-27.1 567.99-30.55Q567.99-33.7 569.64-35.4 571.29-37.1 574.59-37.1L574.59-37.1 579.04-37.1Q579.79-37.1 579.79-36.35L579.79-36.35 579.84-34Q579.84-33.75 579.69-33.58 579.54-33.4 579.19-33.4L579.19-33.4 575.99-33.4Q574.54-33.4 573.87-32.48 573.19-31.55 573.19-30L573.19-30 573.19-26.95Q573.19-26.5 573.69-26.5L573.69-26.5 578.89-26.5ZM599.14-3L599.14-3Q597.39-1.3 595.29-0.4 593.19 0.5 590.54 0.5L590.54 0.5Q586.69 0.5 584.49-1.5 582.29-3.5 582.29-6.75L582.29-6.75Q582.29-9.5 583.86-11.45 585.44-13.4 588.46-14.55 591.49-15.7 595.84-15.9L595.84-15.9 599.09-16.15Q599.39-16.2 599.64-16.35 599.89-16.5 599.89-16.9L599.89-16.9 599.89-18.15Q599.89-20.6 598.39-22.03 596.89-23.45 594.29-23.45L594.29-23.45Q592.34-23.45 590.69-22.55 589.04-21.65 587.74-19.75L587.74-19.75Q587.59-19.5 587.44-19.4 587.29-19.3 586.89-19.4L586.89-19.4 583.49-20.4Q583.29-20.5 583.21-20.68 583.14-20.85 583.34-21.35L583.34-21.35Q584.79-24.05 587.61-25.53 590.44-27 594.54-27L594.54-27Q598.14-27 600.44-25.98 602.74-24.95 603.86-23.03 604.99-21.1 604.99-18.5L604.99-18.5 604.99-0.85Q604.99-0.35 604.81-0.18 604.64 0 604.24 0L604.24 0 600.84 0Q600.49 0 600.29-0.28 600.09-0.55 600.04-1L600.04-1 599.99-2.9Q599.84-3.7 599.14-3L599.14-3ZM599.89-12.45L599.89-12.45Q599.89-13.3 599.19-13.2L599.19-13.2 596.49-13Q594.49-12.9 592.84-12.48 591.19-12.05 590.01-11.35 588.84-10.65 588.16-9.68 587.49-8.7 587.49-7.4L587.49-7.4Q587.49-5.45 588.86-4.33 590.24-3.2 592.59-3.2L592.59-3.2Q594.09-3.2 595.41-3.73 596.74-4.25 597.74-5.05L597.74-5.05Q598.74-5.9 599.31-6.8 599.89-7.7 599.89-8.55L599.89-8.55 599.89-12.45ZM627.83-20.3L627.83-20.3Q626.88-21.7 625.18-22.6 623.48-23.5 621.13-23.5L621.13-23.5Q618.68-23.5 617.06-22.5 615.43-21.5 615.43-19.7L615.43-19.7Q615.43-18.85 616.13-18 616.83-17.15 619.13-16.5L619.13-16.5 625.28-14.75Q628.93-13.8 630.53-11.9 632.13-10 632.13-7.55L632.13-7.55Q632.13-5.05 630.71-3.28 629.28-1.5 626.76-0.5 624.23 0.5 620.98 0.5L620.98 0.5Q616.88 0.5 613.86-1.07 610.83-2.65 609.58-5L609.58-5Q609.48-5.3 609.48-5.53 609.48-5.75 609.68-5.9L609.68-5.9 612.13-7.2Q612.48-7.4 612.71-7.38 612.93-7.35 613.03-7.15L613.03-7.15Q613.83-6 614.88-5.1 615.93-4.2 617.43-3.68 618.93-3.15 621.03-3.15L621.03-3.15Q622.78-3.15 624.21-3.63 625.63-4.1 626.43-4.95 627.23-5.8 627.23-6.95L627.23-6.95Q627.23-8.15 626.26-9.03 625.28-9.9 622.83-10.55L622.83-10.55 617.73-11.85Q613.93-12.85 612.28-14.6 610.63-16.35 610.63-18.8L610.63-18.8Q610.63-21.25 611.93-23.08 613.23-24.9 615.61-25.95 617.98-27 621.18-27L621.18-27Q624.68-27 627.33-25.68 629.98-24.35 631.33-22.3L631.33-22.3Q631.48-22.1 631.53-21.88 631.58-21.65 631.28-21.45L631.28-21.45 628.68-20.1Q628.48-20 628.26-20.05 628.03-20.1 627.83-20.3L627.83-20.3ZM651.23-22.7L645.23-22.7Q644.78-22.7 644.78-22.2L644.78-22.2 644.78-7.55Q644.78-5.4 645.58-4.63 646.38-3.85 648.03-3.85L648.03-3.85 651.23-3.85Q651.53-3.85 651.68-3.68 651.83-3.5 651.83-3.25L651.83-3.25 651.83-1.1Q651.83-0.45 651.08-0.25L651.08-0.25Q650.43-0.15 649.48-0.1 648.53-0.05 647.61-0.03 646.68 0 645.98 0L645.98 0Q642.73 0 641.11-1.53 639.48-3.05 639.48-6.25L639.48-6.25 639.48-22.1Q639.48-22.7 638.98-22.7L638.98-22.7 635.23-22.7Q634.58-22.7 634.58-23.3L634.58-23.3 634.58-25.95Q634.58-26.5 635.18-26.5L635.18-26.5 639.18-26.5Q639.58-26.5 639.58-26.95L639.58-26.95 640.18-34.8Q640.23-35.5 640.78-35.5L640.78-35.5 644.23-35.5Q644.88-35.5 644.88-34.7L644.88-34.7 644.88-26.95Q644.88-26.5 645.33-26.5L645.33-26.5 651.33-26.5Q651.93-26.5 651.93-25.95L651.93-25.95 651.93-23.3Q651.93-22.7 651.23-22.7L651.23-22.7ZM660.33-11.4L660.33-11.4Q660.33-9.15 661.4-7.33 662.48-5.5 664.3-4.42 666.13-3.35 668.38-3.35L668.38-3.35Q670.68-3.35 672.48-4.3 674.28-5.25 675.78-7.25L675.78-7.25Q675.93-7.45 676.08-7.48 676.23-7.5 676.53-7.35L676.53-7.35 679.08-6.15Q679.63-5.9 679.18-5.35L679.18-5.35Q677.78-3.3 676.1-2 674.43-0.7 672.38-0.1 670.33 0.5 667.83 0.5L667.83 0.5Q664.03 0.5 661.13-1.2 658.23-2.9 656.55-5.95 654.88-9 654.88-12.95L654.88-12.95Q654.88-17.3 656.58-20.43 658.28-23.55 661.2-25.28 664.13-27 667.73-27L667.73-27Q671.43-27 674.2-25.38 676.98-23.75 678.53-20.7 680.08-17.65 680.08-13.3L680.08-13.3Q680.08-12.85 679.98-12.53 679.88-12.2 679.33-12.2L679.33-12.2 660.83-12.2Q660.58-12.2 660.45-11.98 660.33-11.75 660.33-11.4L660.33-11.4ZM660.43-15.4L673.98-15.35Q674.53-15.35 674.68-15.5 674.83-15.65 674.83-16.05L674.83-16.05Q674.83-17.95 674-19.65 673.18-21.35 671.65-22.4 670.13-23.45 667.88-23.45L667.88-23.45Q665.53-23.45 663.85-22.33 662.18-21.2 661.3-19.35 660.43-17.5 660.43-15.4L660.43-15.4ZM686.18 0L686.18 0Q685.78 0 685.58-0.2 685.38-0.4 685.38-0.8L685.38-0.8 685.38-25.75Q685.38-26.5 686.03-26.5L686.03-26.5 689.88-26.5Q690.48-26.5 690.48-25.85L690.48-25.85 690.48-22.7Q690.48-22.4 690.65-22.35 690.83-22.3 691.03-22.55L691.03-22.55Q692.28-24.05 693.55-25.03 694.83-26 696.13-26.5 697.43-27 698.73-27L698.73-27Q700.48-27 700.48-26.3L700.48-26.3 700.48-22.4Q700.48-21.8 699.93-21.9L699.93-21.9Q699.33-22.05 698.65-22.1 697.98-22.15 697.28-22.15L697.28-22.15Q696.23-22.15 695.08-21.7 693.93-21.25 692.95-20.48 691.98-19.7 691.33-18.75 690.68-17.8 690.68-16.8L690.68-16.8 690.68-0.85Q690.68 0 689.73 0L689.73 0 686.18 0ZM706.02-5.8L706.02-0.9Q706.02 0 704.97 0L704.97 0 700.72 0Q699.87 0 699.87-0.8L699.87-0.8 699.87-5.75Q699.87-6.45 700.47-6.45L700.47-6.45 705.47-6.45Q706.02-6.45 706.02-5.8L706.02-5.8Z" opacity="1" transform="matrix(1,0,0,1,0,0)" fill="#000000" class="undefined-text-1" data-fill-palette-color="secondary" id="text-1"></path></svg></g></svg></g></svg></g></svg></g><g transform="matrix(1,0,0,1,37.745104998927474,0)"><svg viewBox="0 0 84.50979000214505 77.4673075019663" height="77.4673075019663" width="84.50979000214505"><g><svg xmlns="http://www.w3.org/2000/svg" xmlns:xlink="http://www.w3.org/1999/xlink" version="1.1" x="0" y="0" viewBox="0 2 24 22" enable-background="new 0 0 24 24" xml:space="preserve" height="77.4673075019663" width="84.50979000214505" class="icon-icon-0" data-fill-palette-color="accent" id="icon-0"><g fill="#39cccc" data-fill-palette-color="accent"><path d="M10 22h2c0 1.104 0.896 2 2 2s2-0.896 2-2h2v-8h-8V22zM14 21c0.552 0 1 0.448 1 1s-0.448 1-1 1-1-0.448-1-1S13.448 21 14 21z" fill="#000000" data-fill-palette-color="accent"></path><path d="M22 16h-3v6h1c0 1.104 0.896 2 2 2s2-0.896 2-2v-3L22 16zM20 19v-2h1.465l1.333 2H20zM22 23c-0.552 0-1-0.448-1-1s0.448-1 1-1 1 0.448 1 1S22.552 23 22 23z" fill="#000000" data-fill-palette-color="accent"></path><path d="M10 2L0 10h2v12h6V12h10v-2h2L10 2zM6 17H4v-3h2V17z" fill="#000000" data-fill-palette-color="accent"></path></g></svg></g></svg></g><g></g></svg></g></svg></g></svg></g></svg></g><defs></defs></svg><rect width="320" height="360" fill="none" stroke="none" visibility="hidden"></rect></g></svg></g></svg>